<svg id="Layer_1" data-name="Layer 1" xmlns="http://www.w3.org/2000/svg" viewBox="0 0 466.91 466.91"><defs><style>.cls-1{fill:#46ab48;}.cls-2,.cls-3,.cls-4{fill:#fff;}.cls-3{fill-opacity:0.98;}.cls-3,.cls-4{fill-rule:evenodd;}.cls-5{fill:none;stroke:#fff;stroke-miterlimit:10;stroke-width:3px;}</style></defs><circle class="cls-1" cx="233.45" cy="233.45" r="233.45"/><g id="layer1"><path id="rect5826" class="cls-2" d="M235,234.63a3.75,3.75,0,0,0-3.77,3.74v20.19H220c.74,13.52-1.3,45.44,21.83,52.5v16.07c7.09,0,11.56.83,23.12,0v-16c23.13-7.12,21.29-39,22-52.56H274.6V238.37a3.77,3.77,0,0,0-7.53,0v20.19H238.8V238.37a3.75,3.75,0,0,0-3.77-3.74Z" transform="translate(-16.55 -13.85)"/></g><g id="g6241"><path id="rect5754" class="cls-2" d="M96.72,210.93c2.08,0,1.13,1.58,1.13,3.54L100.47,291A3.75,3.75,0,0,1,93,291l2.34-76.57c0-2-.67-3.54,1.4-3.54Z" transform="translate(-16.55 -13.85)"/><path id="path5757" class="cls-2" d="M127.76,229.44c-2.15,3.48-26.9-16.05-31.16-16.08S67.3,232.53,65.2,229s28.13-14,30.28-17.52-2.88-33.62,1.38-33.59-1.23,30.09.87,33.6,32.18,14.44,30,17.92Z" transform="translate(-16.55 -13.85)"/><path id="path5759" class="cls-2" d="M99.43,212.32a2.9,2.9,0,1,1-2.9-2.74A2.83,2.83,0,0,1,99.43,212.32Z" transform="translate(-16.55 -13.85)"/><g id="g6204"><g id="g5766"><path id="path5770" class="cls-2" d="M123.42,258.31" transform="translate(-16.55 -13.85)"/></g></g></g><path id="path910" class="cls-3" d="M273.22,97.14a20.78,20.78,0,1,1-20.78-20.37A20.59,20.59,0,0,1,273.22,97.14Z" transform="translate(-16.55 -13.85)"/><path id="path854" class="cls-3" d="M250.06,65.65c-1.63,3.45,2.33,8.67,5.42,4.75,1.2-3.41.35-7.15.75-10.69.79-3.1-.44-5.59-3.88-6-2,.39-1.72,7.86-2.29,11.9Z" transform="translate(-16.55 -13.85)"/><path id="path855" class="cls-3" d="M227.89,57.83a3,3,0,0,0-2.68,1.8,2.91,2.91,0,0,0,.54,3.14s2.45,2.71,10.07,11.2a3,3,0,0,0,2.9,1.06A3,3,0,0,0,241,73a2.91,2.91,0,0,0-.7-3c-7.62-8.49-10-11.2-10-11.2A3,3,0,0,0,227.89,57.83Z" transform="translate(-16.55 -13.85)"/><path id="path870" class="cls-3" d="M213.14,74.34c-.31,1.09-.74,2.9,1.06,3.59,4.15,2.77,9,4,14,6a3,3,0,0,0,4-3c-.09-1.92-2.16-2.72-3.73-3.26-4-1.62-8-3-12.07-4.4A5.34,5.34,0,0,0,213.14,74.34Z" transform="translate(-16.55 -13.85)"/><path id="path873" class="cls-3" d="M209,95.47c.13,1.37-.6,3,.71,3.77,2.75.9,9.27.87,14.2.91,2.39-.18,3.56-3.5,1.72-5.05-1.42-1.32-3.48-.73-5.23-.91-2,0-11.84-.38-11.4,1.28Z" transform="translate(-16.55 -13.85)"/><path id="path858" class="cls-3" d="M227.65,106.32a3.06,3.06,0,0,0-1.36.36c-5.71,2.88-8.63,4.32-10.1,5-.69.33-1,.46-1.18.53l-.09,0a3,3,0,0,0-2,3.3,3,3,0,0,0,3,2.47s.39,0,.51,0l.27-.06.27-.09.36-.15c.28-.12.7-.31,1.48-.68,1.56-.74,4.53-2.19,10.25-5.08a2.94,2.94,0,0,0,1.62-3.37A3,3,0,0,0,227.65,106.32Z" transform="translate(-16.55 -13.85)"/><path id="path859" class="cls-3" d="M236.27,118.34a3.08,3.08,0,0,0-2.05.89c-5.18,5.08-7.8,7.55-9.05,8.69-.48.45-.6.55-.72.65l0,0a2.94,2.94,0,0,0-1.48,2.57l.12.89.7,1.12,1.17.77,1,.18s.47,0,.63-.06A1.67,1.67,0,0,0,227,134a2.71,2.71,0,0,0,.42-.18,3.19,3.19,0,0,0,.61-.38c.29-.23.65-.54,1.32-1.15,1.36-1.24,4-3.71,9.17-8.81a2.94,2.94,0,0,0,.69-3.29A3,3,0,0,0,236.27,118.34Z" transform="translate(-16.55 -13.85)"/><path id="path860" class="cls-3" d="M253.55,121.25a3,3,0,0,0-2.1,1,2.93,2.93,0,0,0-.8,2.12c.13,5-1,11.08.53,13.15a6.47,6.47,0,0,0,2.82.69l2.42-.84c.6-1.95.61-5.07.26-13.14a2.91,2.91,0,0,0-.93-2.12A3.07,3.07,0,0,0,253.55,121.25Z" transform="translate(-16.55 -13.85)"/><path id="path861" class="cls-3" d="M268.93,119.21a3,3,0,0,0-2.69,1.53,2.91,2.91,0,0,0,.12,3.05,89.48,89.48,0,0,0,6,8.48,7.67,7.67,0,0,0,1.45,1.39,3.12,3.12,0,0,0,1.06.54,3.36,3.36,0,0,0,1,.14,3,3,0,0,0,.64-.08c.21-.06.63-.24.63-.24a3,3,0,0,0,1.7-2.6,2.91,2.91,0,0,0-1.58-2.66l-.27-.33a81.24,81.24,0,0,1-5.58-7.83A3,3,0,0,0,268.93,119.21Z" transform="translate(-16.55 -13.85)"/><path id="path862" class="cls-3" d="M278.21,108a3,3,0,0,0-2.62,2.43,2.93,2.93,0,0,0,1.63,3.15c3.49,1.77,7.81,5.22,10.7,4.66,2.4-.45,2.6-2.08,2.41-3.7-.4-1.56-1.79-2.35-10.34-6.22A3,3,0,0,0,278.21,108Z" transform="translate(-16.55 -13.85)"/><path id="path863" class="cls-3" d="M298,94a2.81,2.81,0,0,0-1,.17l-1.06.06c-1.81.08-5.58.15-13.18.15a3,3,0,0,0-2.64,1.47,2.9,2.9,0,0,0,0,3,3,3,0,0,0,2.64,1.46c7.65,0,11.46-.09,13.45-.18,1,0,1.55-.06,2-.11a3.22,3.22,0,0,0,.69-.15,2.71,2.71,0,0,0,.82-.39c.1-.07.23-.18.36-.29s.42-.45.42-.45l.36-.73.19-1a2.94,2.94,0,0,0-.88-2.14A3,3,0,0,0,298,94Z" transform="translate(-16.55 -13.85)"/><path id="path864" class="cls-3" d="M293.51,77.47c-3.18,0-3.19-.19-14.6,2.81a3,3,0,0,0-2.28,2,2.9,2.9,0,0,0,.74,2.94,3.07,3.07,0,0,0,3,.76c5.22-1.25,13.69-2.75,14-4.54C295.87,79.94,294.59,78.8,293.51,77.47Z" transform="translate(-16.55 -13.85)"/><path id="path865" class="cls-3" d="M276.75,60.12c-1.79,1-4,2.94-9.75,11.26a2.93,2.93,0,0,0,.92,4.1,3.05,3.05,0,0,0,4.17-.9c3-4.53,7.45-9.77,7.83-11.63A3.66,3.66,0,0,0,276.75,60.12Z" transform="translate(-16.55 -13.85)"/><path class="cls-4" d="M261.5,321.59" transform="translate(-16.55 -13.85)"/><path class="cls-2" d="M412.33,203.85l-7.84-.15-.09-11.44-22,.16.08,11.23-8.27.07.58,77.34,38.15-.28Z" transform="translate(-16.55 -13.85)"/><g id="LIghting"><path class="cls-1" d="M389.88,218.44l16.79,26.33h-13.9l6.71,20-19.06-24.63h15.44l-6-21.7m0-1.58a1.64,1.64,0,0,0-.64.14,1.59,1.59,0,0,0-.88,1.86l5.43,19.7H380.42a1.57,1.57,0,0,0-1.25,2.54l19.07,24.63a1.57,1.57,0,0,0,1.25.61,1.65,1.65,0,0,0,.74-.18,1.58,1.58,0,0,0,.75-1.89l-6-17.92h11.71a1.58,1.58,0,0,0,1.33-2.43l-16.79-26.33a1.55,1.55,0,0,0-1.33-.73Z" transform="translate(-16.55 -13.85)"/></g><path class="cls-5" d="M96.72,307.89c0,58.94,52.13,106.64,116.56,106.64" transform="translate(-16.55 -13.85)"/><path class="cls-5" d="M253.5,323.6c0,50.26-18,90.93-40.22,90.93" transform="translate(-16.55 -13.85)"/><path class="cls-5" d="M286.45,414.53c59.19,0,107.1-49.45,107.1-110.57" transform="translate(-16.55 -13.85)"/><path class="cls-5" d="M392.37,167.27c0-41.53-29.29-75.13-65.5-75.13" transform="translate(-16.55 -13.85)"/><path class="cls-5" d="M96.72,162.12c0-40.75,34-73.72,75.93-73.72" transform="translate(-16.55 -13.85)"/></svg>